<svg xmlns="http://www.w3.org/2000/svg" width="18" height="18.75"><rect id="backgroundrect" width="100%" height="100%" x="0" y="0" fill="none" stroke="none"/><title>menu</title><g class="currentLayer" style=""><title>Layer 1</title><g data-name="Layer 2" id="svg_1" class="selected" fill="#ffffff" fill-opacity="1"><g data-name="Layer 1" id="svg_2" fill="#ffffff" fill-opacity="1"><path d="M1.5,3h15a1.5,1.5,0,0,0,0-3H1.5a1.5,1.5,0,0,0,0,3Z" id="svg_3" fill="#ffffff" fill-opacity="1"/><path d="M16.5,6H1.5a1.5,1.5,0,0,0,0,3h15a1.5,1.5,0,0,0,0-3Z" id="svg_4" fill="#ffffff" fill-opacity="1"/><path d="M16.5,12H1.5a1.5,1.5,0,0,0,0,3h15a1.5,1.5,0,0,0,0-3Z" id="svg_5" fill="#ffffff" fill-opacity="1"/></g></g></g></svg>