<svg xmlns="http://www.w3.org/2000/svg" version="1.0" width="684.000000" height="176.000000" preserveAspectRatio="xMidYMid meet"><rect id="backgroundrect" width="100%" height="100%" x="0" y="0" fill="none" stroke="none"/>
<metadata>
Created by potrace 1.15, written by Peter Selinger 2001-2017
</metadata>

<g class="currentLayer" style=""><title>Layer 1</title><g transform="translate(0,176) scale(0.10000000149011612,-0.10000000149011612) " fill="#ffffff" stroke="none" id="svg_1" class="selected" fill-opacity="1">
<path d="M6788 1732 c-28 -47 -168 -174 -258 -234 -153 -102 -395 -213 -649 -299 -114 -39 -165 -70 -186 -115 -17 -37 -17 -39 24 -208 23 -94 49 -196 58 -226 l16 -55 14 40 c18 53 75 110 143 144 30 16 147 65 260 111 346 139 525 232 565 294 11 16 23 97 40 261 31 291 31 315 7 315 -10 0 -25 -13 -34 -28z" id="svg_2" fill="#ffffff" fill-opacity="1"/>
<path d="M3077 1506 c-50 -19 -85 -51 -108 -101 -70 -152 86 -310 249 -251 45 16 98 70 113 113 27 82 -12 181 -89 226 -42 24 -118 31 -165 13z" id="svg_3" fill="#ffffff" fill-opacity="1"/>
<path d="M354 1465 c-205 -44 -354 -221 -354 -418 l0 -59 135 4 c99 2 138 7 144 16 4 8 14 38 20 67 14 61 43 108 84 139 43 32 169 30 215 -2 80 -58 99 -183 43 -295 -47 -95 -108 -170 -375 -456 l-246 -264 0 -86 c0 -54 5 -92 12 -99 17 -17 959 -17 976 0 17 17 17 329 0 346 -8 8 -46 12 -104 12 -85 0 -94 -2 -108 -22 -9 -12 -16 -39 -16 -59 0 -20 -6 -42 -14 -48 -9 -8 -66 -11 -181 -9 l-167 3 187 205 c289 316 346 401 368 541 29 186 -58 366 -213 442 -109 53 -275 71 -406 42z" id="svg_4" fill="#ffffff" fill-opacity="1"/>
<path d="M976 1444 c-20 -20 -23 -146 -3 -162 7 -6 32 -14 56 -18 30 -5 46 -13 52 -28 5 -12 72 -291 150 -620 77 -330 142 -604 145 -608 3 -4 66 -8 140 -8 l135 0 13 32 c7 18 67 228 132 465 65 238 121 433 124 433 3 0 61 -201 129 -447 68 -247 128 -456 133 -466 8 -15 25 -17 144 -17 130 0 135 1 144 22 5 13 71 289 146 613 75 325 140 597 145 606 4 9 27 19 51 23 62 10 68 19 68 97 0 103 11 99 -269 99 -176 0 -242 -3 -255 -13 -14 -10 -16 -26 -14 -92 l3 -80 49 -12 c54 -13 68 -27 63 -58 -13 -77 -152 -733 -154 -727 -1 4 -61 221 -133 482 -86 314 -136 479 -147 488 -10 7 -50 12 -103 12 -54 0 -92 -5 -102 -12 -11 -8 -63 -182 -143 -478 -70 -256 -130 -468 -134 -473 -4 -4 -42 158 -84 360 -86 410 -85 394 -7 407 24 4 43 14 50 25 16 30 12 123 -6 149 -15 22 -18 22 -259 22 -208 0 -246 -2 -259 -16z" id="svg_5" fill="#ffffff" fill-opacity="1"/>
<path d="M4916 1438 c-14 -20 -16 -78 -16 -461 0 -283 4 -445 10 -458 10 -17 22 -19 146 -19 l134 0 10 26 c16 40 13 873 -3 904 -12 24 -15 25 -139 28 -121 2 -127 2 -142 -20z" id="svg_6" fill="#ffffff" fill-opacity="1"/>
<path d="M4245 1100 c-64 -9 -117 -32 -165 -70 -21 -16 -44 -30 -52 -30 -19 0 -38 20 -38 41 0 41 -35 49 -220 49 -219 0 -220 -1 -220 -100 0 -80 10 -95 72 -105 84 -14 78 13 78 -344 0 -249 -3 -321 -13 -329 -7 -6 -32 -14 -55 -18 -26 -4 -48 -15 -57 -28 -17 -23 -20 -102 -5 -141 l10 -25 267 2 268 3 3 78 c3 87 -3 102 -50 111 -60 12 -58 3 -58 311 l0 284 36 29 c95 79 242 62 285 -31 17 -38 19 -68 19 -303 0 -285 2 -276 -60 -289 -19 -4 -41 -12 -47 -17 -17 -14 -17 -150 -1 -166 9 -9 84 -12 275 -12 300 0 283 -5 283 92 0 70 -18 95 -75 103 -24 4 -49 12 -54 19 -5 6 -11 142 -14 301 -5 303 -10 344 -55 431 -57 112 -205 176 -357 154z" id="svg_7" fill="#ffffff" fill-opacity="1"/>
<path d="M2921 1073 c-20 -16 -22 -26 -19 -93 l3 -75 45 -13 c25 -7 56 -16 70 -20 l25 -7 3 -319 c1 -208 -1 -323 -8 -331 -6 -7 -29 -16 -52 -19 -64 -10 -78 -28 -78 -98 0 -105 -20 -98 296 -98 l274 0 10 26 c14 35 12 104 -3 134 -9 18 -25 27 -57 33 -25 5 -50 13 -57 19 -9 7 -13 114 -15 428 -2 327 -6 422 -16 432 -9 10 -64 14 -206 16 -173 3 -195 1 -215 -15z" id="svg_8" fill="#ffffff" fill-opacity="1"/>
<path d="M6550 975 c-36 -18 -164 -72 -285 -120 -222 -88 -311 -133 -353 -178 -26 -27 -41 -100 -24 -111 6 -4 103 -19 216 -33 l205 -27 93 37 c52 20 127 57 168 81 76 44 170 133 170 160 0 18 -12 22 -128 37 -50 6 -100 18 -110 25 -15 13 -11 19 52 77 38 35 67 68 65 74 -2 7 -29 -1 -69 -22z" id="svg_9" fill="#ffffff" fill-opacity="1"/>
<path d="M6741 732 c-61 -120 -274 -229 -576 -294 -100 -22 -131 -37 -82 -39 16 -1 18 -2 5 -6 -22 -6 -24 -51 -3 -60 9 -3 24 2 34 11 13 12 21 14 26 7 3 -6 17 -8 31 -5 20 5 24 2 24 -15 0 -12 -6 -21 -15 -21 -18 0 -18 -5 -5 -30 6 -11 16 -17 24 -14 7 3 19 -2 26 -11 11 -13 11 -20 0 -40 -17 -32 1 -55 42 -55 71 0 358 134 434 204 l46 41 14 150 c16 181 17 215 4 215 -5 0 -18 -17 -29 -38z" id="svg_10" fill="#ffffff" fill-opacity="1"/>
<path d="M4985 356 c-77 -33 -126 -133 -105 -213 15 -61 35 -89 85 -118 48 -29 134 -34 188 -11 139 57 143 267 7 336 -46 23 -129 26 -175 6z" id="svg_11" fill="#ffffff" fill-opacity="1"/>
<path d="M5910 130 c-26 -26 -27 -90 -2 -113 11 -10 35 -17 60 -17 48 0 72 25 72 75 0 64 -85 100 -130 55z" id="svg_12" fill="#ffffff" fill-opacity="1"/>
</g></g></svg>