<svg xmlns="http://www.w3.org/2000/svg" xmlns:xlink="http://www.w3.org/1999/xlink" version="1.1" style="" xml:space="preserve" width="64" height="80"><rect id="backgroundrect" width="100%" height="100%" x="0" y="0" fill="none" stroke="none"/><g class="currentLayer" style=""><title>Layer 1</title><path d="M61.963,24.729c-0.099-0.348-0.377-0.616-0.729-0.701l-29-7c-0.154-0.037-0.314-0.037-0.469,0l-29,7  c-0.352,0.085-0.63,0.353-0.729,0.701c-0.098,0.348,0,0.722,0.256,0.978L8.586,32l-6.293,6.293c-0.256,0.256-0.354,0.63-0.256,0.978  c0.099,0.348,0.377,0.616,0.729,0.701l29,7C31.843,46.991,31.921,47,32,47s0.157-0.009,0.234-0.028l29-7  c0.352-0.085,0.63-0.353,0.729-0.701c0.098-0.348,0-0.722-0.256-0.978L55.414,32l6.293-6.293  C61.963,25.451,62.061,25.077,61.963,24.729z M53.293,31.293c-0.391,0.391-0.391,1.023,0,1.414l5.739,5.739L32,44.971L4.968,38.446  l5.739-5.739c0.391-0.391,0.391-1.023,0-1.414l-5.739-5.739L32,19.029l27.032,6.525L53.293,31.293z" id="svg_1" class="" fill="#ffffff" fill-opacity="1"/><path d="M58.29,22.345l1.877-0.689C55.849,9.899,44.529,2,32,2S8.151,9.899,3.833,21.655l1.877,0.689C9.74,11.372,20.306,4,32,4  S54.26,11.372,58.29,22.345z" id="svg_2" class="" fill="#ffffff" fill-opacity="1"/><path d="M5.71,41.655l-1.877,0.689C8.151,54.101,19.471,62,32,62s23.849-7.899,28.167-19.655l-1.877-0.689  C54.26,52.628,43.694,60,32,60S9.74,52.628,5.71,41.655z" id="svg_3" class="" fill="#ffffff" fill-opacity="1"/><path d="M13.448,18.408l1.613,1.184C19.009,14.212,25.342,11,32,11s12.991,3.212,16.938,8.592l1.613-1.184  C46.229,12.517,39.293,9,32,9S17.771,12.517,13.448,18.408z" id="svg_4" class="" fill="#ffffff" fill-opacity="1"/><path d="M50.552,45.592l-1.613-1.184C44.991,49.788,38.658,53,32,53s-12.991-3.212-16.938-8.592l-1.613,1.184  C17.771,51.483,24.707,55,32,55S46.229,51.483,50.552,45.592z" id="svg_5" class="" fill="#ffffff" fill-opacity="1"/><path d="M20,26h-6c-0.553,0-1,0.448-1,1v8c0,0.552,0.447,1,1,1h6c0.553,0,1-0.448,1-1v-8C21,26.448,20.553,26,20,26z M19,34h-4v-6h4  V34z" id="svg_6" class="" fill="#ffffff" fill-opacity="1"/><path d="M31,27c0-0.552-0.447-1-1-1h-6c-0.553,0-1,0.448-1,1v8c0,0.552,0.447,1,1,1h6c0.553,0,1-0.448,1-1V27z M29,34h-4v-6h4V34z" id="svg_7" class="" fill="#ffffff" fill-opacity="1"/><path d="M34,36h6c0.553,0,1-0.448,1-1v-8c0-0.552-0.447-1-1-1h-6c-0.553,0-1,0.448-1,1v8C33,35.552,33.447,36,34,36z M35,28h4v6h-4  V28z" id="svg_8" class="" fill="#ffffff" fill-opacity="1"/><path d="M44,36h6c0.553,0,1-0.448,1-1v-8c0-0.552-0.447-1-1-1h-6c-0.553,0-1,0.448-1,1v8C43,35.552,43.447,36,44,36z M45,28h4v6h-4  V28z" id="svg_9" class="" fill="#ffffff" fill-opacity="1"/><rect x="27" y="38" width="2" height="2" id="svg_10" class="" fill="#ffffff" fill-opacity="1"/><rect x="31" y="38" width="2" height="2" id="svg_11" class="" fill="#ffffff" fill-opacity="1"/><rect x="35" y="38" width="2" height="2" id="svg_12" class="" fill="#ffffff" fill-opacity="1"/></g></svg>