<svg xmlns="http://www.w3.org/2000/svg" xmlns:xlink="http://www.w3.org/1999/xlink" version="1.1" x="0px" y="0px" viewBox="0 0 50 62.5" style="enable-background:new 0 0 50 50;" xml:space="preserve"><path d="M24.546875,3.8359375C12.8769531,3.8359375,3.3828125,13.3300781,3.3828125,25s9.4941406,21.1640625,21.1640625,21.1640625  S45.7109375,36.6699219,45.7109375,25S36.2167969,3.8359375,24.546875,3.8359375z M26.0532227,31.4433594l-0.0629883-4.1123047  c-0.9233398-0.0976563-3.777832-0.2666016-6.644043,0.9033203c-3.25,1.3251953-4.9296875,2.5234375-4.9462891,2.5351563  l-0.6806641,0.4912109l0.0883789-0.8349609c0.0166016-0.15625,0.4560547-3.8691406,4.6972656-6.9990234  c2.9804688-2.1982422,6.5317383-2.6972656,7.6616211-2.8037109l0.0009766-3.5556641l9.3637695,6.9140625L26.0532227,31.4433594z"/></svg>