<svg xmlns="http://www.w3.org/2000/svg" xmlns:xlink="http://www.w3.org/1999/xlink" version="1.1" style="" xml:space="preserve" width="100" height="125"><rect id="backgroundrect" width="100%" height="100%" x="0" y="0" fill="none" stroke="none"/><g class="currentLayer" style=""><title>Layer 1</title><g id="svg_1" class="selected" fill-opacity="1" fill="#278bbd"><path d="M62.1,49.6c1.2-2,1.9-4.4,1.9-6.9v-8.2c0-6.6-5.4-12-12-12h-4c-6.6,0-12,5.4-12,12v8.2c0,2.5,0.7,4.9,1.9,6.9   C28.4,50.7,21,58.9,21,68.8v6.8c0,1.1,0.9,2,2,2h54c1.1,0,2-0.9,2-2v-6.8C79,58.9,71.6,50.7,62.1,49.6z M40,34.5c0-4.4,3.6-8,8-8h4   c4.4,0,8,3.6,8,8v8.2c0,5.4-4.4,9.8-9.8,9.8h-0.4c-5.4,0-9.8-4.4-9.8-9.8V34.5z M75,73.5H25v-4.8c0-8.4,6.7-15.2,15-15.2   c0.3,0,0.7-0.1,1-0.3c2.4,2,5.5,3.3,8.9,3.3h0.4c3.4,0,6.5-1.2,8.9-3.3c0.3,0.2,0.6,0.3,1,0.3c8.2,0,15,6.8,15,15.2V73.5z" id="svg_2" fill="#278bbd"/></g></g></svg>