<svg xmlns="http://www.w3.org/2000/svg" xmlns:xlink="http://www.w3.org/1999/xlink" version="1.1" enable-background="new 0 0 100 100" xml:space="preserve" width="100" height="125" style=""><rect id="backgroundrect" width="100%" height="100%" x="0" y="0" fill="none" stroke="none"/><metadata><?xpacket begin="&#65279;" id="W5M0MpCehiHzreSzNTczkc9d"?><x:xmpmeta xmlns:x="adobe:ns:meta/" x:xmptk="Adobe XMP Core 5.3-c011 66.145661, 2012/02/06-14:56:27        "/><?xpacket end="w"?></metadata><g class="currentLayer" style=""><title>Layer 1</title><g id="svg_1" class="selected" fill="#ffffff" fill-opacity="1"><path d="M84.301,71.044c-3.984,0-7.459,2.193-9.301,5.43L25.542,54.282c0.551-1.288,0.857-2.705,0.857-4.191   c0-1.517-0.321-2.958-0.894-4.267L75,23.616c1.842,3.237,5.316,5.43,9.301,5.43c5.899,0,10.699-4.8,10.699-10.7   s-4.8-10.7-10.699-10.7c-5.9,0-10.7,4.8-10.7,10.7c0,1.207,0.21,2.362,0.579,3.445L24.536,44.067   c-1.929-2.82-5.169-4.676-8.837-4.676C9.8,39.391,5,44.191,5,50.091C5,55.99,9.8,60.79,15.699,60.79   c3.698,0,6.962-1.886,8.885-4.746L74.18,78.299c-0.369,1.083-0.579,2.239-0.579,3.445c0,5.899,4.8,10.699,10.7,10.699   C90.2,92.443,95,87.644,95,81.744C95,75.844,90.2,71.044,84.301,71.044z M84.301,9.646c4.797,0,8.699,3.903,8.699,8.7   c0,4.797-3.902,8.7-8.699,8.7c-3.172,0-5.944-1.711-7.465-4.254c-0.341-0.57-0.624-1.177-0.828-1.82   c-0.264-0.829-0.407-1.71-0.407-2.625C75.601,13.55,79.504,9.646,84.301,9.646z M23.719,53.464c-0.264,0.624-0.605,1.204-1,1.744   c-1.584,2.167-4.137,3.582-7.02,3.582C10.902,58.79,7,54.888,7,50.091s3.902-8.7,8.699-8.7c2.853,0,5.382,1.386,6.969,3.514   c0.4,0.537,0.746,1.116,1.016,1.737c0.459,1.058,0.716,2.223,0.716,3.448C24.399,51.286,24.156,52.426,23.719,53.464z    M84.301,90.443c-4.797,0-8.7-3.902-8.7-8.699c0-0.915,0.144-1.796,0.407-2.625c0.204-0.644,0.487-1.251,0.828-1.82   c1.521-2.542,4.293-4.254,7.465-4.254c4.797,0,8.699,3.903,8.699,8.7S89.098,90.443,84.301,90.443z" id="svg_2" fill="#ffffff" fill-opacity="1"/></g></g></svg>