<svg xmlns="http://www.w3.org/2000/svg" xmlns:xlink="http://www.w3.org/1999/xlink" version="1.1" width="24" height="30" style=""><rect id="backgroundrect" width="100%" height="100%" x="0" y="0" fill="none" stroke="none"/><g class="currentLayer" style=""><title>Layer 1</title><path d="M11.992 1.040c-0.005-0-0.012-0-0.018-0-1.1 0-2.060 0.598-2.574 1.486l-8.054 13.944c-0.253 0.43-0.402 0.948-0.402 1.5 0 1.657 1.343 3 3 3 0.001 0 0.001 0 0.002 0h16.092c0.001 0 0.001 0 0.002 0 1.657 0 3-1.343 3-3 0-0.552-0.149-1.070-0.41-1.514l-8.038-13.916c-0.522-0.903-1.482-1.5-2.582-1.5-0.006 0-0.013 0-0.019 0h0.001z" id="svg_1" class="" fill="#4a90d6" fill-opacity="1" transform="rotate(179.99102783203125 11.991998672485352,11.005000114440918) "/></g></svg>